<svg xmlns="http://www.w3.org/2000/svg" width="32" height="32" viewBox="0 0 32 32">
  <path id="ico_demo" d="M589.533,1879.466v-14.933a.533.533,0,1,1,1.066,0v14.933a.533.533,0,1,1-1.066,0Zm-2.133,0v-14.933a.533.533,0,1,1,1.066,0v14.933a.533.533,0,1,1-1.066,0Zm4.267-3.2v-8.534a.533.533,0,0,1,1.066,0v8.534a.533.533,0,0,1-1.066,0Zm-6.4,0v-8.534a.533.533,0,0,1,1.066,0v8.534a.533.533,0,0,1-1.066,0Zm8.534-1.067v-6.4a.533.533,0,0,1,1.066,0v6.4a.533.533,0,1,1-1.066,0Zm-10.667,0v-6.4a.533.533,0,0,1,1.066,0v6.4a.533.533,0,1,1-1.066,0Zm17.067-1.067v-4.266a.533.533,0,1,1,1.066,0v4.266a.533.533,0,1,1-1.066,0Zm-2.134,0v-4.266a.534.534,0,0,1,1.067,0v4.266a.534.534,0,0,1-1.067,0Zm-19.2,0v-4.266a.533.533,0,1,1,1.067,0v4.266a.533.533,0,1,1-1.067,0Zm-2.133,0v-4.266a.533.533,0,1,1,1.066,0v4.266a.533.533,0,1,1-1.066,0Zm25.6-1.067v-2.133a.533.533,0,1,1,1.066,0v2.133a.533.533,0,1,1-1.066,0Zm-6.4,0v-2.133a.533.533,0,1,1,1.066,0v2.133a.533.533,0,1,1-1.066,0Zm-14.934,0v-2.133a.534.534,0,0,1,1.067,0v2.133a.534.534,0,0,1-1.067,0Zm-6.4,0v-2.133a.533.533,0,1,1,1.066,0v2.133a.533.533,0,1,1-1.066,0Zm29.333-.533v-1.067a.533.533,0,0,1,1.067,0v1.067a.533.533,0,0,1-1.067,0Zm-30.933,0v-1.067a.533.533,0,0,1,1.067,0v1.067a.533.533,0,0,1-1.067,0Zm18.8-7.115a.531.531,0,0,1-.13-.418l.392-3.134h-.929a3.2,3.2,0,0,1-3.2-3.2h0v-7.47h0a3.2,3.2,0,0,1,3.2-3.2H601.8a3.2,3.2,0,0,1,3.2,3.2v7.466a3.2,3.2,0,0,1-3.2,3.2h-4.294l-4.993,3.631a.536.536,0,0,1-.313.1A.531.531,0,0,1,591.8,1865.419Zm1.082-1.507,4.871-3.543a.533.533,0,0,1,.847.432h3.2a2.134,2.134,0,0,0,2.133-2.134V1851.2a2.134,2.134,0,0,0-2.133-2.134H591.134A2.134,2.134,0,0,0,589,1851.2v1.066c0,.01,0,.021,0,.031v4.206c0,.01,0,.02,0,.031v2.133a2.134,2.134,0,0,0,2.133,2.134H592.2l.008-.067a.533.533,0,0,1,1.057.132l-.06.477a.534.534,0,0,1-.014.113Zm6.251-8.978a1.6,1.6,0,1,1,1.6,1.6A1.6,1.6,0,0,1,599.134,1854.933Zm-4.267,0a1.6,1.6,0,1,1,1.6,1.6A1.6,1.6,0,0,1,594.867,1854.933Zm-4.267,0a1.6,1.6,0,1,1,1.6,1.6A1.6,1.6,0,0,1,590.6,1854.933Z" transform="translate(-573 -1848)" fill="#272725"/>
</svg>
