<svg xmlns="http://www.w3.org/2000/svg" width="43.572" height="40.764" viewBox="0 0 43.572 40.764">
  <path id="Shape_14" data-name="Shape 14" d="M503.469,2113.1c-1.012-.013-2.025-.006-3.038-.006-.994,0-1.987-.006-2.981.006-.214,0-.262-.065-.261-.269q.012-3.015,0-6.032c0-.19.045-.265.247-.255a8.183,8.183,0,0,0,.919,0c.227-.013.3.048.3.287-.012,1.5,0,3-.012,4.5,0,.262.074.321.325.319.809-.007,1.619-.007,2.429-.007.686,0,1.371,0,2.057,0,.214,0,.3.05.28.275a7.852,7.852,0,0,0,0,.921c.012.2-.045.268-.252.268Zm30.749-.258a7.593,7.593,0,0,0,0-.949c-.014-.224.075-.257.272-.257,1.5.008,3.009,0,4.513.011.247,0,.309-.065.306-.308-.011-1.5,0-3-.011-4.5,0-.229.056-.314.292-.3a7.316,7.316,0,0,0,.89,0c.216-.012.285.052.282.276-.012,1.005,0,2.011,0,3.016s-.008,1.993,0,2.989c0,.226-.069.275-.282.273q-3-.011-5.99,0h-.013C534.287,2113.094,534.2,2113.053,534.218,2112.837Zm-23.231-5.158c.018-.409,0-.411.419-.409a6.982,6.982,0,0,0,1.772-.147,2.464,2.464,0,0,0,2.078-2.42c.066-.67.1-1.339.1-2.01q0-11.735.006-23.473c0-.262-.051-.352-.329-.343-.4.012-.8.011-1.2.008a18.553,18.553,0,0,0-1.949.057,7.892,7.892,0,0,0-1.556.3,4.287,4.287,0,0,0-1.895,1.179,8.684,8.684,0,0,0-2.149,4.493c-.094.511-.086.513-.6.513s-.506,0-.506-.517c0-2.393.005-4.787,0-7.181,0-.244.059-.31.306-.31q6.761.011,13.522.005h13.382c.391,0,.391,0,.391.4,0,2.431,0,4.863,0,7.294,0,.237-.043.32-.3.312-.649-.019-.651,0-.862-.627a22.839,22.839,0,0,0-.814-2.227,5.707,5.707,0,0,0-5.282-3.685c-.553-.016-1.106-.015-1.66-.015-.348,0-.7,0-1.045,0-.157,0-.224.046-.2.2a1.506,1.506,0,0,1,0,.168v23.612c0,.746.026,1.49.094,2.232a2.08,2.08,0,0,0,1.112,1.639,3.938,3.938,0,0,0,2.025.531c.316.008.632.006.949,0,.13,0,.17.045.177.177.031.555.037.553-.5.553q-7.583,0-15.166.007C511.038,2108.005,510.975,2107.928,510.987,2107.679Zm-13.8-29.092c.008-1.769,0-3.54,0-5.308,0-.232.013-.467,0-.7-.013-.2.057-.253.249-.251,1,.009,2.006,0,3.01,0s2.006,0,3.009,0c.2,0,.284.035.271.256a7.948,7.948,0,0,0,0,.949c.013.221-.074.259-.273.258-.628,0-1.256,0-1.885,0-.867,0-1.734,0-2.6-.007-.275,0-.336.074-.332.34.013,1.5,0,3,.01,4.5,0,.205-.045.281-.259.268a6.672,6.672,0,0,0-.919,0l-.054,0C497.218,2078.892,497.189,2078.788,497.19,2078.588Zm41.9.3a4.534,4.534,0,0,0-.715,0c-.163.012-.209-.053-.208-.264.008-1.229,0-2.458,0-3.687,0-.28-.016-.561,0-.837s-.067-.317-.255-.316c-1.155.011-2.31,0-3.465.013-.193,0-.252-.063-.239-.31.017-.307.012-.615,0-.922-.005-.186.043-.235.185-.234.786.008,1.573,0,2.36,0s1.545,0,2.318,0c.16,0,.223.038.223.272q-.011,3,0,6c0,.2-.035.283-.178.283Z" transform="translate(-497.19 -2072.332)" fill="#e8553e"/>
</svg>
