<svg width="24" height="24" viewBox="0 0 15 15" fill="none" xmlns="http://www.w3.org/2000/svg">
<g clip-path="url(#clip0)">
<path d="M7.5011 0C3.35909 0 0.000976562 3.35792 0.000976562 7.49993C0.000976562 11.6418 3.35904 15 7.50105 15C11.6431 15 15.0009 11.6418 15.0009 7.49993C15.0009 3.35792 11.643 0 7.5011 0ZM9.83233 10.5301H5.16938C4.78408 10.5301 4.47068 10.2167 4.47068 9.83145V5.16855C4.47068 4.78325 4.78413 4.46986 5.16938 4.46986H9.83228C10.2176 4.46986 10.531 4.7833 10.531 5.16855V9.83145C10.531 10.2167 10.2176 10.5301 9.83233 10.5301Z" fill="white"/>
</g>
<defs>
<clipPath id="clip0">
<rect width="15" height="15" fill="white"/>
</clipPath>
</defs>
</svg>
